<?xml version="1.0" encoding="utf-8"?>
<!-- Generator: Adobe Illustrator 16.0.3, SVG Export Plug-In . SVG Version: 6.00 Build 0)  -->
<!DOCTYPE svg PUBLIC "-//W3C//DTD SVG 1.1//EN" "http://www.w3.org/Graphics/SVG/1.1/DTD/svg11.dtd">
<svg version="1.1" id="Capa_1" xmlns="http://www.w3.org/2000/svg" xmlns:xlink="http://www.w3.org/1999/xlink" x="0px" y="0px"
	 width="354.275px" height="73.5px" viewBox="0 0 354.275 73.5" enable-background="new 0 0 354.275 73.5" xml:space="preserve">
<g>
	<g>
		<path fill="#319851" d="M25.665,11.285c-8.821-0.091-15.607,6.204-16.218,12.499c-0.659,5.065,0.662,8.589,3.965,14.097
			c-3.084,5.729-6.168,11.453-8.811,17.18c-1.542,3.083,2.865,5.727,4.846,3.746c1.762-1.762,3.084-3.746,4.623-6.382
			c2.205,5.943,7.05,8.806,13.656,8.806c3.745,0,10.134-4.182,14.539-11.013l7.929-1.541c0.441,9.47,4.405,13.216,9.913,13.216
			c6.167,0,11.674-3.526,16.08-11.454c4.845,0.879,10.131-0.443,14.756-3.083c1.764,5.286-0.44,8.808-3.744,9.027
			c-1.542,0-2.643-0.879-3.523-1.762c-2.203-1.101-4.626,0-4.626,2.645c0.221,3.524,2.423,5.946,7.491,5.946
			c4.626,0,9.25-3.526,13.437-3.746c3.524-0.658,9.911,2.205,11.015,1.104c2.422-2.424,2.2-5.508-2.205-7.27
			c-3.524-1.319-7.05,1.32-10.794,0c0.44-3.305,0.881-6.388,0.219-9.252l1.981-1.762c1.764-3.083,0.662-4.403-1.542-4.625
			c-4.626,0-11.014,6.387-18.723,7.489c-1.543-0.221-2.864-0.881-3.083-1.983c0-4.625-3.303-5.506-8.808-3.965
			c-0.44-1.543-1.324-2.203-2.865-2.424c-1.762,0.221-3.524,0.662-5.286,2.205c-5.287,1.101-10.351,4.184-15.418,3.744
			c2.862-12.994-1.762-28.853-16.521-31.277C27.192,11.348,26.429,11.293,25.665,11.285L25.665,11.285z M25.306,17.834
			c7.708,0.002,16.299,9.034,12.116,25.111c-6.832-0.219-11.899-2.424-15.199-6.607c1.817-2.937,3.506-5.95,5.064-9.032
			c1.101-2.643-3.083-5.727-4.845-3.745l-5.065,6.386C12.972,26.423,18.698,17.834,25.306,17.834z M18.918,43.611
			c3.966,2.639,8.81,4.619,14.317,5.506c-0.221,2.42-2.643,5.063-5.948,5.063c-3.083,0-5.727-2.422-7.046-6.167
			c-0.662-0.658-1.543-0.879-2.864-0.658C17.983,46.147,18.499,44.896,18.918,43.611L18.918,43.611z M64.891,44.033
			c0.234,0.001,0.476,0.006,0.723,0.013c0.66,2.205,1.32,2.864,3.305,3.964c-0.221,3.746-3.966,7.05-7.49,7.493l-3.303-1.325
			c-1.319-1.102-1.762-2.641-1.542-4.184C56.583,46.367,57.618,43.981,64.891,44.033L64.891,44.033z M206.55,9.902
			c-9.865,0.014-16.302,7.217-18.472,17.406c-0.881,5.505,6.388,5.505,6.607,1.319c0.885-8.148,6.173-12.333,12.777-12.113
			c6.608,0,11.236,4.625,11.236,12.334c-0.221,7.489-4.188,11.451-10.576,12.113c-1.979,0-5.503-1.981-4.844-3.745
			c1.76-3.963,3.08-7.268,4.404-11.673c0.66-2.424-3.303-5.286-4.844-2.203c-4.628,9.913-9.472,19.823-14.101,29.734
			c-2.641,0-9.247-0.436-9.027,3.53c0,2.862,0.879,3.526,3.303,3.526c5.065-0.664,10.132-0.444,15.197,0.22
			c2.864,0,3.09-3.745,1.541-5.289c-0.656-0.66-2.42-1.098-3.08-1.319l3.743-8.372c1.983,1.541,4.184,2.86,6.831,2.86
			c11.013,0,18.057-11.892,18.057-19.602c-0.217-10.794-7.708-18.723-18.28-18.723C206.865,9.903,206.708,9.901,206.55,9.902
			L206.55,9.902z M239.401,22.239c-1.983,0-3.747,1.762-3.747,3.745c0,2.205,1.764,3.965,3.747,3.965
			c2.193,0.009,3.974-1.771,3.965-3.965C243.366,24.003,241.602,22.239,239.401,22.239z M299.311,36.778
			c-6.165,0.438-10.793,5.727-14.537,12.115c-1.76,2.419-5.729,4.846-7.712,5.284c-1.539,0-2.199-0.439-1.979-2.201
			c1.1-3.083,4.184-5.067,4.184-8.37c0-3.966-3.305-5.727-6.829-5.727c-4.843,0-9.688,4.184-14.32,7.489
			c0.224-1.983,0.887-4.182,1.764-5.727c1.104-2.203-3.083-2.863-4.624-1.101c-6.386,6.387-13.215,11.673-20.924,15.638
			c-2.864,1.323-4.843,0.438-4.624-0.881c1.1-4.403,3.964-8.148,6.608-11.894c1.539-2.422-2.646-5.065-5.069-2.422
			c-4.843,5.286-13.656,14.979-15.639,14.979c-5.284,0-8.364,1.319-8.364,3.739c0,2.647,1.76,3.745,5.282,3.745
			c3.521,0,6.823-2.202,9.688-4.626c1.983,3.526,4.848,5.069,8.368,5.069c4.848,0,10.576-3.967,15.864-7.927
			c-1.324,1.539-2.643,3.958-2.643,5.501c0,2.426,4.625,3.966,6.384,1.762c5.289-6.386,11.017-11.453,16.965-15.194
			c1.764-1.103,4.405,0.436,3.305,1.979c-2.649,2.868-6.388,7.05-6.388,10.134c0.221,1.762,2.2,5.065,5.725,4.401
			c4.85-1.098,9.693-2.641,14.542-5.282c2.643,3.084,5.725,4.626,9.468,4.626c5.948-0.221,13.215-4.846,16.08-11.896
			c4.845,1.32,9.913,0.219,15.2-2.42c1.542,4.405-1.1,8.587-4.188,8.806c-1.323,0-2.645-2.639-4.623-2.639
			c-1.546,0-3.306,1.322-3.306,3.963c0,3.305,3.745,5.507,8.151,5.286c12.338-2.86,18.941-5.067,27.973-2.2
			c1.76,0.66,4.184-1.323,4.184-3.524c0-3.303-4.848-4.845-9.691-5.066c-3.743,0-7.927,1.764-11.231,0.879
			c0.44-3.067,0.44-6.182,0-9.249c2.198-1.323,4.403-6.388,0.219-6.609c-5.288,0.221-10.794,6.609-16.301,7.05
			c-1.979,0.219-4.185,0.659-4.844-0.222c-0.226-3.524-1.544-5.727-4.628-5.727c-1.539-0.22-2.863,0-4.404,0.662
			C301.512,37.659,300.631,37,299.311,36.778L299.311,36.778z M299.535,42.505c1.096,0.881,1.32,2.203,1.096,3.745
			c0.664,1.324,1.983,1.979,3.083,1.979c-1.983,6.389-8.368,9.253-11.451,5.509C289.399,49.553,291.822,45.148,299.535,42.505
			L299.535,42.505z M126.408,55.282c4.843,5.067,11.892,8.149,19.383,8.149c7.487,0,14.537-3.082,19.383-8.149
			c5.067-5.069,8.151-11.896,8.151-19.385c0-7.708-3.086-14.537-8.151-19.602c-4.846-4.845-11.896-7.929-19.383-7.929
			c-7.491,0-14.539,3.084-19.383,7.929c-5.069,5.065-8.15,11.894-8.15,19.602C118.257,43.386,121.339,50.215,126.408,55.282
			L126.408,55.282z M145.79,68.938c-9.031,0-17.401-3.745-23.347-9.691c-5.948-5.948-9.691-14.318-9.691-23.35
			c0-9.25,3.745-17.399,9.691-23.568c5.948-5.946,14.315-9.691,23.347-9.691c9.03,0,17.4,3.745,23.348,9.691
			c5.948,6.169,9.689,14.318,9.689,23.568c0,9.032-3.741,17.401-9.689,23.35C163.19,65.193,154.818,68.938,145.79,68.938z"/>
		<path fill="#319851" d="M157.682,10.788L146.01,44.046l-11.896-33.037l-14.756,37.221h12.775v12.338l3.743,1.76V48.229h20.046
			v13.881l3.963-1.542V48.229H172L157.682,10.788z"/>
	</g>
</g>
</svg>
