<svg width="239" height="605" fill="none" xmlns="http://www.w3.org/2000/svg"><g filter="url(#prefix__filter0_d)"><path fill-rule="evenodd" clip-rule="evenodd" d="M120.714 212.028c30.09 1.021 52.858 25.807 62.778 54.841 31.165 23.617 32.204 122.506-11.058 96.521-28.455 23.229-79.697 16.881-108.539-5.846-35.185 5.846-26.171-61.924-7.037-83.172 10.27-31.659 31.221-63.451 63.856-62.344z" fill="#FF03C8"/></g><path d="M125.106 594.067L63.165 355.508l117.365-1.598-55.424 240.157z" fill="#F1F450"/><path fill-rule="evenodd" clip-rule="evenodd" d="M117.253 108.714c91-9.46 75 78.028 87 87.032 26.818 20.12 11.814 116.086-38.045 68.968-26.455-25-60.216-18.822-85.455 0-59 44-49.273-99.705-23.5-107.5 28-8.468 4.95-42.777 60-48.5z" fill="#FFB803"/><g filter="url(#prefix__filter1_f)"><path d="M201.891 195.287C186.042 183.97 183 185.5 168 189" stroke="#AE6726"/></g><g filter="url(#prefix__filter2_f)"><path d="M69.453 153.789c19.344 8.907 23.7 24.036 27 58" stroke="#AE6726"/></g><g filter="url(#prefix__filter3_f)"><path d="M49.487 315.885c-4.27 18.027-2.985 25.771 8 34" stroke="#B4088E"/></g><g filter="url(#prefix__filter4_f)"><path d="M187.664 308.065c14.534 22.976 13.372 33.803.317 50.694" stroke="#B4088E"/></g><path fill-rule="evenodd" clip-rule="evenodd" d="M63 363.011c0 .085.01.169.032.251l1.324 5.099c1.807 4.57 4.519 13.708 7.682 17.625 3.163 3.917 5.874 2.611 9.037 3.264 2.712.653 5.875 3.917 9.038 1.306 2.711-1.959 5.874-9.792 9.038-13.056 2.711-3.264 5.874-1.306 9.037-3.917 2.712-2.611 5.875-8.486 9.038-4.569 2.711 3.917 3.366 35.43 2.918 24.986 5.64 36.319 17.878-18.563 17.999-30.683a.997.997 0 01.075-.362c3.088-7.67 2.979-8.955 5.669-8.955 3.133 0 6.266 0 8.96 2.537a1.1 1.1 0 00.167.13c3.125 1.989 5.815 6.546 8.948 14.305 2.746 6.8-.637 14.72-.395 20.534.068 1.647 1.095 3.036 2.398 4.045l1.941 1.504c2.346 1.816 5.783.538 6.37-2.37L180.5 354H64a1 1 0 00-1 1v8.011z" fill="#FF03C8"/><path d="M125.45 594.557l-9-46.999-7.95-41.058-10.5-56 20.424 19.057 47.526-53.999-20.5 92.999-7.5 29-12.5 57z" fill="#D7DA35"/><g filter="url(#prefix__filter5_f)"><path d="M70 363.5c7 40.5 30.5.5 44.5-3.5" stroke="#B4088E"/></g><g filter="url(#prefix__filter6_f)"><path d="M170.165 380.602c-1.667-20.66-8.769-33.354-37.271-32.926" stroke="#B4088E"/></g><defs><filter id="prefix__filter0_d" x="36" y="212" width="174" height="174" filterUnits="userSpaceOnUse" color-interpolation-filters="sRGB"><feFlood flood-opacity="0" result="BackgroundImageFix"/><feColorMatrix in="SourceAlpha" values="0 0 0 0 0 0 0 0 0 0 0 0 0 0 0 0 0 0 127 0"/><feOffset dy="4"/><feGaussianBlur stdDeviation="2"/><feColorMatrix values="0 0 0 0 0 0 0 0 0 0 0 0 0 0 0 0 0 0 0.25 0"/><feBlend in2="BackgroundImageFix" result="effect1_dropShadow"/><feBlend in="SourceGraphic" in2="effect1_dropShadow" result="shape"/></filter><filter id="prefix__filter1_f" x="163.886" y="181.938" width="42.295" height="17.756" filterUnits="userSpaceOnUse" color-interpolation-filters="sRGB"><feFlood flood-opacity="0" result="BackgroundImageFix"/><feBlend in="SourceGraphic" in2="BackgroundImageFix" result="shape"/><feGaussianBlur stdDeviation="2" result="effect1_foregroundBlur"/></filter><filter id="prefix__filter2_f" x="64.889" y="145.3" width="44.647" height="70.839" filterUnits="userSpaceOnUse" color-interpolation-filters="sRGB"><feFlood flood-opacity="0" result="BackgroundImageFix"/><feBlend in="SourceGraphic" in2="BackgroundImageFix" result="shape"/><feGaussianBlur stdDeviation="2" result="effect1_foregroundBlur"/></filter><filter id="prefix__filter3_f" x="42.721" y="311.77" width="19.066" height="42.515" filterUnits="userSpaceOnUse" color-interpolation-filters="sRGB"><feFlood flood-opacity="0" result="BackgroundImageFix"/><feBlend in="SourceGraphic" in2="BackgroundImageFix" result="shape"/><feGaussianBlur stdDeviation="2" result="effect1_foregroundBlur"/></filter><filter id="prefix__filter4_f" x="183.242" y="303.797" width="19.429" height="59.267" filterUnits="userSpaceOnUse" color-interpolation-filters="sRGB"><feFlood flood-opacity="0" result="BackgroundImageFix"/><feBlend in="SourceGraphic" in2="BackgroundImageFix" result="shape"/><feGaussianBlur stdDeviation="2" result="effect1_foregroundBlur"/></filter><filter id="prefix__filter5_f" x="65.507" y="355.519" width="53.13" height="30.464" filterUnits="userSpaceOnUse" color-interpolation-filters="sRGB"><feFlood flood-opacity="0" result="BackgroundImageFix"/><feBlend in="SourceGraphic" in2="BackgroundImageFix" result="shape"/><feGaussianBlur stdDeviation="2" result="effect1_foregroundBlur"/></filter><filter id="prefix__filter6_f" x="128.887" y="343.166" width="45.776" height="41.476" filterUnits="userSpaceOnUse" color-interpolation-filters="sRGB"><feFlood flood-opacity="0" result="BackgroundImageFix"/><feBlend in="SourceGraphic" in2="BackgroundImageFix" result="shape"/><feGaussianBlur stdDeviation="2" result="effect1_foregroundBlur"/></filter></defs></svg>