<svg width="315" height="465" viewBox="0 0 315 465" fill="none" xmlns="http://www.w3.org/2000/svg">
<g id="svg_one" clip-path="url(#clip0)">
<g id="cream" clip-path="url(#clip1)">
<g id="bodyice_cream">
<g id="Rectangle 2">
<rect x="147" y="219" width="32" height="142" rx="11" fill="url(#paint0_angular)"/>
<rect x="147" y="219" width="32" height="142" rx="11" fill="#F0C37F"/>
</g>
<g id="Rectangle 1" filter="url(#filter0_d)">
<path d="M91.4208 60.8248C108.968 47.938 143.548 46.4547 176.654 48.8068C212.359 51.3434 230.211 52.6118 242.245 67.7419C254.279 82.872 251.185 102.54 244.996 141.877L231.874 225.284C230.859 231.734 230.351 234.959 228.106 236.878C225.861 238.798 222.597 238.798 216.068 238.798L123.445 238.798C109.295 238.798 102.221 238.798 96.4586 234.643C90.6964 230.489 88.6117 224.23 84.4423 211.712C70.4383 169.666 51.0836 90.4482 91.4208 60.8248Z" fill="#FB8B8B"/>
</g>
<path id="Line 1" d="M163.496 237.936C163.496 334 169 249 169 341" stroke="#E68E0B"/>
</g>
<g id="Vector">
<g id="Vector_2" filter="url(#filter1_d)">
<path fill-rule="evenodd" clip-rule="evenodd" d="M236.078 159.974C210.036 176.794 238.906 100.734 213.347 117.977C228.088 175.232 184.59 163.972 192.562 117.965C171.567 119.544 184.964 174.518 177.601 180.439C166.224 189.587 150.024 200.035 165.115 134.41C143.373 122.443 179.758 84.8603 154.047 78.8506C129.531 73.12 131.536 177.952 106.116 175.164C96.6028 154.939 101.043 153.444 105.398 135.417C119.071 78.8311 87.4251 125.798 90.084 120.307C75.0148 122.984 102.374 92.2069 95.5572 75.8905C67.1755 96.6598 80.0954 136.645 66.091 124.221C60.6916 114.391 68.6863 60.0082 82.5495 58.0697C82.5407 42.8189 115.873 35.2141 134.853 35.4949C146.625 35.669 154.022 34.6727 163.364 36.653C174.094 35.1402 194.938 31.7438 203.495 36.8088C217.513 41.7017 235.074 46.1304 232.515 50.6336C243.853 56.5579 248.524 70.4898 250.024 75.9767C265.443 83.2081 249.992 150.987 236.078 159.974Z" fill="#00FFF0"/>
</g>
<g id="points" clip-path="url(#clip2)">
<circle id="Ellipse 1" cx="174.5" cy="125.5" r="2.5" fill="#993075"/>
<circle id="Ellipse 2" cx="133.5" cy="76.5" r="2.5" fill="#993075"/>
<circle id="Ellipse 3" cx="148.5" cy="61.5" r="2.5" fill="#0138FB"/>
<circle id="Ellipse 4" cx="108.5" cy="67.5" r="2.5" fill="#993075"/>
<circle id="Ellipse 24" cx="93.5" cy="47.5" r="2.5" fill="#140533"/>
<circle id="Ellipse 5" cx="155.5" cy="47.5" r="2.5" fill="#896C7F"/>
<circle id="Ellipse 11" cx="177.5" cy="45.5" r="2.5" fill="#FF00A8"/>
<circle id="Ellipse 12" cx="205.5" cy="59.5" r="2.5" fill="#993075"/>
<circle id="Ellipse 13" cx="186.5" cy="58.5" r="2.5" fill="#140533"/>
<circle id="Ellipse 14" cx="223.5" cy="68.5" r="2.5" fill="#B50606"/>
<circle id="Ellipse 15" cx="207.5" cy="102.5" r="2.5" fill="#FFB649"/>
<circle id="Ellipse 35" cx="187.5" cy="112.5" r="2.5" fill="#FFB649"/>
<circle id="Ellipse 36" cx="207.5" cy="122.5" r="2.5" fill="#380B29"/>
<circle id="Ellipse 16" cx="164.5" cy="97.5" r="2.5" fill="#993075"/>
<circle id="Ellipse 17" cx="207.5" cy="82.5" r="2.5" fill="#993075"/>
<circle id="Ellipse 18" cx="188.5" cy="92.5" r="2.5" fill="#FA0000"/>
<circle id="Ellipse 19" cx="171.5" cy="76.5" r="2.5" fill="#993075"/>
<circle id="Ellipse 20" cx="197.5" cy="36.5" r="2.5" fill="#086583"/>
<circle id="Ellipse 21" cx="141.5" cy="104.5" r="2.5" fill="#140533"/>
<circle id="Ellipse 22" cx="107.5" cy="107.5" r="2.5" fill="#993075"/>
<circle id="Ellipse 23" cx="79.5" cy="100.5" r="2.5" fill="#993075"/>
<circle id="Ellipse 9" cx="108.5" cy="87.5" r="2.5" fill="#FA0000"/>
<circle id="Ellipse 10" cx="111.5" cy="52.5" r="2.5" fill="url(#paint1_diamond)"/>
<circle id="Ellipse 6" cx="84.5" cy="68.5" r="2.5" fill="#0138FB"/>
<circle id="Ellipse 7" cx="131.5" cy="47.5" r="2.5" fill="#380B29"/>
<circle id="Ellipse 8" cx="126.5" cy="140.5" r="2.5" fill="#0138FB"/>
<circle id="Ellipse 26" cx="123.5" cy="97.5" r="2.5" fill="#B8D602"/>
<circle id="Ellipse 27" cx="101.5" cy="123.5" r="2.5" fill="#FB01B5"/>
<circle id="Ellipse 28" cx="166.5" cy="153.5" r="2.5" fill="#380B29"/>
<circle id="Ellipse 29" cx="204.5" cy="146.5" r="2.5" fill="#FB0101"/>
<circle id="Ellipse 30" cx="234.5" cy="140.5" r="2.5" fill="#B8D602"/>
<circle id="Ellipse 31" cx="243.5" cy="106.5" r="2.5" fill="#FB0101"/>
<circle id="Ellipse 32" cx="224.5" cy="49.5" r="2.5" fill="#FB0101"/>
<circle id="Ellipse 33" cx="244.5" cy="82.5" r="2.5" fill="#0138FB"/>
<circle id="Ellipse 34" cx="220.5" cy="96.5" r="2.5" fill="#615B5F"/>
</g>
</g>
</g>
</g>
<defs>
<filter id="filter0_d" x="62" y="46.1376" width="194.96" height="203.268" filterUnits="userSpaceOnUse" color-interpolation-filters="sRGB">
<feFlood flood-opacity="0" result="BackgroundImageFix"/>
<feColorMatrix in="SourceAlpha" type="matrix" values="0 0 0 0 0 0 0 0 0 0 0 0 0 0 0 0 0 0 127 0"/>
<feOffset dy="4"/>
<feGaussianBlur stdDeviation="2"/>
<feColorMatrix type="matrix" values="0 0 0 0 0 0 0 0 0 0 0 0 0 0 0 0 0 0 0.25 0"/>
<feBlend mode="normal" in2="BackgroundImageFix" result="effect1_dropShadow"/>
<feBlend mode="normal" in="SourceGraphic" in2="effect1_dropShadow" result="shape"/>
</filter>
<filter id="filter1_d" x="60.391" y="34.1298" width="200.052" height="161.085" filterUnits="userSpaceOnUse" color-interpolation-filters="sRGB">
<feFlood flood-opacity="0" result="BackgroundImageFix"/>
<feColorMatrix in="SourceAlpha" type="matrix" values="0 0 0 0 0 0 0 0 0 0 0 0 0 0 0 0 0 0 127 0"/>
<feOffset dy="4"/>
<feGaussianBlur stdDeviation="2"/>
<feColorMatrix type="matrix" values="0 0 0 0 0 0 0 0 0 0 0 0 0 0 0 0 0 0 0.25 0"/>
<feBlend mode="normal" in2="BackgroundImageFix" result="effect1_dropShadow"/>
<feBlend mode="normal" in="SourceGraphic" in2="effect1_dropShadow" result="shape"/>
</filter>
<radialGradient id="paint0_angular" cx="0" cy="0" r="1" gradientUnits="userSpaceOnUse" gradientTransform="translate(163 290) rotate(90) scale(71 16)">
<stop offset="0.234375" stop-color="#FFB649"/>
<stop offset="0.84375" stop-color="#C4C4C4" stop-opacity="0"/>
</radialGradient>
<radialGradient id="paint1_diamond" cx="0" cy="0" r="1" gradientUnits="userSpaceOnUse" gradientTransform="translate(111.5 52.5) rotate(90) scale(2.5)">
<stop stop-color="#615B5F"/>
<stop offset="1" stop-color="#92878E" stop-opacity="0"/>
</radialGradient>
<clipPath id="clip0">
<rect width="315" height="465" fill="white"/>
</clipPath>
<clipPath id="clip1">
<rect width="311" height="512" fill="white" transform="translate(-28 -5)"/>
</clipPath>
<clipPath id="clip2">
<rect width="192" height="153" fill="white" transform="translate(77 33)"/>
</clipPath>
</defs>
</svg>
